<svg height="480pt" viewBox="0 0 480 480.21842" width="480pt" xmlns="http://www.w3.org/2000/svg"><g fill="#9bc9ff"><path d="m304.109375 448.21875c-8.835937 0-16 7.164062-16 16v8h112v-8c0-8.835938-7.164063-16-16-16zm0 0"/><path d="m224.109375 88.21875c22.089844 0 40-17.910156 40-40s-17.910156-40-40-40-40 17.910156-40 40 17.910156 40 40 40zm0-56c8.835937 0 16 7.164062 16 16s-7.164063 16-16 16-16-7.164062-16-16 7.164063-16 16-16zm0 0"/><path d="m96.109375 88.21875c22.089844 0 40-17.910156 40-40s-17.910156-40-40-40-40 17.910156-40 40 17.910156 40 40 40zm0-56c8.835937 0 16 7.164062 16 16s-7.164063 16-16 16-16-7.164062-16-16 7.164063-16 16-16zm0 0"/><path d="m312.109375 176.21875v-80l-48 24v32zm0 0"/><path d="m80.109375 72.21875v112h160v-112zm64 80v-48l48 24zm0 0"/><path d="m320.109375 416.21875h48v32h-48zm0 0"/><path d="m216.109375 400.21875c0 8.835938 7.164063 16 16 16h224c8.835937 0 16-7.164062 16-16v-16h-256zm0 0"/><path d="m320.109375 344.21875 64-32-64-32zm0 0"/></g><path d="m224.109375 72.21875c13.253906 0 24-10.746094 24-24s-10.746094-24-24-24-24 10.746094-24 24 10.746094 24 24 24zm0-32c4.417969 0 8 3.582031 8 8s-3.582031 8-8 8-8-3.582031-8-8 3.582031-8 8-8zm0 0" fill="#1e81ce"/><path d="m96.109375 72.21875c13.253906 0 24-10.746094 24-24s-10.746094-24-24-24-24 10.746094-24 24 10.746094 24 24 24zm0-32c4.417969 0 8 3.582031 8 8s-3.582031 8-8 8-8-3.582031-8-8 3.582031-8 8-8zm0 0" fill="#1e81ce"/><path d="m136.109375 91.265625v73.890625l73.886719-36.9375zm16 25.90625 22.113281 11.046875-22.113281 11.0625zm0 0" fill="#1e81ce"/><path d="m456.109375 232.21875h-224c-13.253906 0-24 10.746094-24 24v120h-184c-4.417969 0-8-3.582031-8-8v-216c0-4.417969 3.582031-8 8-8h16v24h32v24h176v-32h14.113281l57.886719 28.945312v-105.890624l-57.886719 28.945312h-14.113281v-22.496094c22.050781-12.671875 30.410156-40.324218 19.074219-63.089844-11.335938-22.761718-38.445313-32.753906-61.84375-22.792968-23.398438 9.964844-34.984375 36.429687-26.429688 60.378906h-37.601562c8.503906-23.917969-3.082032-50.320312-26.441406-60.253906-23.359376-9.933594-50.414063.039062-61.742188 22.753906-11.324219 22.71875-3.007812 50.324219 18.984375 63.003906v14.496094h-32v24h-16c-13.253906 0-24 10.746094-24 24v216c0 13.253906 10.746094 24 24 24h184v8c0 13.253906 10.746094 24 24 24h80v16h-8c-13.253906 0-24 10.746094-24 24h-16v16h160v-16h-16c0-13.253906-10.746094-24-24-24h-8v-16h80c13.253906 0 24-10.746094 24-24v-144c0-13.253906-10.746094-24-24-24zm-184-107.054688 32-16v54.109376l-32-16zm-16 3.054688v16h-8v-16zm-32-112c17.671875 0 32 14.328125 32 32s-14.328125 32-32 32-32-14.328125-32-32 14.328125-32 32-32zm-92.320313 64h56.640626c10.902343 12.355469 27.453124 18.144531 43.679687 15.28125v80.71875h-144v-80.71875c16.226563 2.863281 32.777344-2.925781 43.679687-15.28125zm-67.679687-32c0-17.671875 14.328125-32 32-32s32 14.328125 32 32-14.328125 32-32 32-32-14.328125-32-32zm-8 72h16v32h-16zm328 336c4.417969 0 8 3.582031 8 8h-96c0-4.417969 3.582031-8 8-8zm-56-16v-16h32v16zm136-64h-224v16h224v8c0 4.417969-3.582031 8-8 8h-224c-4.417969 0-8-3.582031-8-8v-144c0-4.417969 3.582031-8 8-8h224c4.417969 0 8 3.582031 8 8zm0 0" fill="#1e81ce"/><path d="m312.109375 357.164062 89.886719-44.945312-89.886719-44.945312zm16-64 38.113281 19.054688-38.113281 19.054688zm0 0" fill="#1e81ce"/></svg>